# xmcd
#
# Track frame offsets: 
#        150
#        15182
#        29333
#        47380
#        62350
#        80140
#        95607
#        113483
#        129797
#        145551
#        159700
#        173891
#        190635
#        208695
#
# Disc length: 2994 seconds
#
# Revision: 0
# Processed by: cddbd v1.5.2PL0 Copyright (c) Steve Scherf et al.
# Submitted via: ExactAudioCopyFreeDBPlugin 1.0
#
DISCID=a40bb00e
DTITLE=Beatrice Egli  - Wohlfühlgarantie 
DYEAR=2018
DGENRE=Schlager
TTITLE0=Herz an 
TTITLE1=Du gibst meinem Leben einen Sinn
TTITLE2=Touché
TTITLE3=Verliebt, verlobt, verflixt nochmal
TTITLE4=Mein Ein und Alles
TTITLE5=Keiner küsst mich 
TTITLE6=Sie
TTITLE7=Ich denke nur noch an mich
TTITLE8=Wahrheit oder Pflicht
TTITLE9=Traumpilot
TTITLE10=Was geht ab
TTITLE11=Im besten Club dieser Stadt
TTITLE12=Ich steh zu dir
TTITLE13=Ich liebe die Musik
EXTD=
EXTT0=
EXTT1=
EXTT2=
EXTT3=
EXTT4=
EXTT5=
EXTT6=
EXTT7=
EXTT8=
EXTT9=
EXTT10=
EXTT11=
EXTT12=
EXTT13=
PLAYORDER=
